<svg version="1.1" xmlns="http://www.w3.org/2000/svg" width="831.5462646484375" height="212.1730194091797" viewBox="0 0 831.5462646484375 212.1730194091797" preserveAspectRatio="xMidYMin meet"><path d="M 742.3699784600052 91.19833543746252 L 771.0097199661628 81.11299137048955 L 791.3999600730773 81.19377784403525 L 761.623449220435 91.87315024211452 L 741.3040916888108 90.38926731927923 M 761.7724073406392 90.62903480069082 L 790.8389339845024 80.79735099823048 L 811.7425443854808 81.06728991764074 L 810.7382714849717 101.12228853230513 L 782.1605803484172 111.64545697261256 L 782.1468126166852 91.45349948726738 L 762.3803084761172 91.32047238802853 M 811.5523492560591 81.85383170578193 L 781.6146534987454 90.65283185573684 M 721.2683028595641 111.58668478257638 L 751.6711313879385 101.63544361347195 L 741.5357953263211 101.06068211120582 L 740.6755616117708 111.44703214540178 L 721.546357896484 111.02091161510093 M 740.6755616117708 111.44703214540178 L 771.0106358249315 110.93939023916374 L 770.8577893900197 122.51267995911462 L 740.5641394775843 130.961494572101 L 740.6755616117708 111.44703214540178 M 781.4719247649293 111.79240046345951 L 811.2081400168553 101.96034241416136 L 831.2728986298766 101.52717369356668 L 831.0035589138242 120.35146867467945 L 800.8747692299354 131.24087084990958 L 800.9239789241558 111.6933077472649 L 781.2230296326189 111.5800142243701 M 831.2007988760639 102.0870871604063 L 801.7270973340951 111.07900303638787 M 740.9731294275585 130.71949294584212 L 771.9924486312378 121.87860687841314 L 791.8681195746877 120.60978206280387 L 791.8663574589209 141.3336769148189 L 761.284716688191 152.72903122395132 L 761.3024330805038 131.67508062041657 L 741.7168615906404 131.97180102024743 M 791.6479462502407 121.08712633933678 L 761.1347009200986 131.83271202266008 M 760.7088094142889 151.38155872531584 L 791.703115118506 140.6777541673238 L 810.8969227154755 140.9793838649782 L 811.7173823105666 160.4384639902967 L 781.1396912282243 172.10859071599992 L 781.0952145995343 151.25841104284223 L 761.4711960212607 151.68236286091627 M 812.1799080911659 141.39298710450305 L 780.6987035362749 151.65593871613262 M 721.5549362720499 172.51876736252117 L 751.586182712477 160.9707639435745 L 771.8355331819291 160.88725015478957 L 771.6435041060631 181.26903345792024 L 741.750964978122 191.54445366124182 L 740.7558990720993 171.34143141724283 L 721.6582780008899 171.62233088148014 M 771.7698272349367 160.63011917101522 L 740.4229038589482 171.83305981792938 M 781.2440300601692 171.67413729595225 L 811.520611731786 161.92323121903482 L 831.5462420732351 161.59105716071704 L 831.4158666120472 181.5267755794278 L 802.0013609391335 191.76286437095717 L 800.7375893456359 171.30749615403528 L 781.3433864776771 171.18264855048744 M 830.6944643857479 162.2913098703093 L 802.1690267791862 171.57065490179264 M 741.012988720883 191.04516974164153 L 771.6845504540258 181.1446431471784 L 791.3750209976728 181.58223627899517 L 761.1180795917575 190.89741968227193 L 741.2999834808705 191.39979478650892 M 761.5655437148814 191.9495030415762 L 790.8686714778812 181.5973139764847 L 780.6416831109722 181.48842356256563 L 780.8561672017349 191.58174513319688 L 761.210484583717 191.980195130638 M 780.8561672017349 191.58174513319688 L 812.2065879721295 190.82611897959964 L 811.2655336748641 200.46376678470182 L 781.4170889068583 211.73287958871163 L 780.8561672017349 191.58174513319688" fill="black" stroke="black"></path>
<path d="M 621.1202896562976 50.95140110963435 L 651.2301909818692 41.50293230699482 L 672.1344108040689 41.288633015951 L 671.399128551319 62.11146352954524 L 642.0693386014696 71.29271284223356 L 642.2849707021177 52.551687129478296 L 621.6493675249474 50.35428680938129 M 671.7893925471517 41.606920449221555 L 641.6724833745152 51.20299547643187 M 640.5323438088602 71.56401181804597 L 671.4152924691739 61.59536698258344 L 671.5780262068114 80.79634331084341 L 641.7972410351903 91.63310692677399 L 641.5616591490453 71.15978079329813 M 641.2308291411465 91.17477797687141 L 671.6306492024929 80.63375946273807 L 670.8776176079061 101.19194864644643 L 641.9290102416985 112.0170609838708 L 640.2745587557006 91.30508889522106 M 682.4631178811494 92.10269014947215 L 711.5689276601421 82.06065097515138 L 731.7926107963373 82.00392864426179 L 732.0128675765094 101.55251561937939 L 701.706745179046 111.4977024641008 L 700.6903150152605 92.46149049994774 L 680.9188845771746 91.70990009793748 M 731.3714312342644 82.54431732882185 L 701.2149710610288 91.2019112477455 M 641.0657048381086 110.95316067123834 L 671.1766515926901 102.22184603587131 L 671.6681986418785 121.11260792177112 L 641.5720132764097 132.9174000227433 L 641.7602769159482 111.02602613753272 M 661.6564188058904 112.18295838009662 L 691.5766816589694 101.8712184119426 L 681.9295645873143 100.93597250899182 L 680.1119920107587 111.45967674481453 L 661.2911100921358 110.89245282612892 M 680.1119920107587 111.45967674481453 L 710.4629341341983 110.7684680714966 L 712.1744567731075 121.75095980261557 L 682.0648112673966 131.09325337498197 L 680.1119920107587 111.45967674481453 M 641.6873522672713 131.70362630521424 L 672.2778120285533 121.60206529590462 L 661.0469319472234 122.1879460350354 L 661.588352373533 131.5190245856461 L 642.0092294930191 131.29163405421565 M 661.588352373533 131.5190245856461 L 691.3097275323564 132.01346841230486 L 691.4599565997044 141.27267898280897 L 661.993525501494 151.16848403975024 L 661.588352373533 131.5190245856461 M 660.641634630778 151.38033076176993 L 690.7374113213253 141.56579142806302 L 691.3253756408061 161.89682586207735 L 662.1947068101223 170.93211616264583 L 661.3811586002073 151.6881563789499 M 641.4049113716156 170.76187476453015 L 672.0481701204753 171.48668782034852 L 671.2107212073098 181.19314065888992 L 640.5957587450497 191.56266918352068 L 641.9189218255118 171.2973523976829 M 661.8953182450692 171.68541032774962 L 690.4755631046811 161.78637814879775 L 711.3440735520925 162.57121718284458 L 711.2225717072108 181.2785672035312 L 680.8815063038352 190.64693643447367 L 681.7719479681276 171.47155346105407 L 661.5282132403707 171.07173161603026 M 712.0827163698197 160.64696804743105 L 682.4722114170022 170.89157800287614 M 641.8593866606996 192.38586067118587 L 671.609849813212 181.91975375616096 L 671.971258695429 201.38123185461367 L 641.7109443681607 211.6227382288221 L 641.3304562091478 191.48585479282983 M 681.2920865981538 191.47048892678555 L 711.071899255016 181.98830848561335 L 731.4800577861831 181.13576705485883 L 731.6047612878281 201.55464490505776 L 702.2139483192337 211.45037100551338 L 700.9439833682735 191.12097460155726 L 681.609836133005 192.17774862067253 M 731.3120816074011 181.46881217203813 L 702.1221327542903 191.5718354132251" fill="black" stroke="black"></path>
<path d="M 540.8209333786564 92.98314867078764 L 571.5740292368873 81.81484639231442 L 591.8548350400496 81.06780941851761 L 562.067386244434 91.72565649448654 L 540.8992797514875 92.01256325426401 M 561.3317896689349 91.20469948056916 L 591.053028989985 81.751076938741 L 611.2905017497388 82.05696403129106 L 611.2453572590229 101.9421870805772 L 581.4616092084112 110.7651409579128 L 581.0001093498122 91.96353911551678 L 561.8837231116128 90.6102387459497 M 612.1447527562448 81.14774540969772 L 580.6922423278509 91.45013455064779 M 520.8305698460671 111.48421355291218 L 550.5569089230212 102.06977081802404 L 541.1257966947948 101.79480557542718 L 540.8867021238099 110.66177380972564 L 521.2612710635898 111.95121630158705 M 540.8867021238099 110.66177380972564 L 571.3378913938516 111.85409737327284 L 571.216626894803 122.35551571658812 L 541.561289851801 132.10420009866897 L 540.8867021238099 110.66177380972564 M 580.3547788843119 111.52370186098348 L 611.5152476673283 101.64912598148231 L 631.5266565098457 101.99632724139036 L 630.9261461089332 121.75403901224745 L 601.3421364112137 131.5978724968855 L 601.6467669643287 111.24396472839945 L 581.8158780719398 111.29939214129624 M 631.6713739974907 100.6169856466224 L 601.4207147469485 111.82640531774123 M 540.6717586934083 131.44584394365208 L 571.0537413790995 121.09983894157352 L 571.1444492522826 141.50375302045904 L 540.7698690019656 152.0610653040389 L 541.1747156759955 131.15461473329043 M 602.1518492797223 131.33780436697376 L 631.2064748518432 121.63511938295932 L 631.8633276252307 141.868075013117 L 602.2679970242269 152.06721114551192 L 601.2960309110557 132.10311563221723 M 542.1259197449992 152.36143295698042 L 571.8659110809593 140.50026536975133 L 571.8440636821484 160.99722007827594 L 542.1106039932129 171.35578430779702 L 540.8693875521889 151.48929148765222 M 602.076363469365 150.94039289072717 L 631.4629064892193 142.4555079597154 L 631.8048773270776 161.8465235854644 L 601.6694553612574 171.79635297119168 L 601.6934022964545 151.50677140514853 M 540.9671544564751 171.93949821125227 L 571.6512258826117 162.07320199696983 L 571.8023673484405 181.47854425747357 L 541.5286929557459 191.1659003294889 L 541.8996862865927 171.20816961099473 M 601.4676319028105 170.84869782930758 L 632.1538293259308 161.69172562795077 L 630.9372027122672 181.5826314713595 L 602.626775215439 191.88595512158636 L 600.5566637784827 171.83170414280772 M 540.8168743384724 191.46190644439824 L 570.5955325262588 180.84766664938255 L 592.0225095967027 180.66681319008725 L 560.5431730222552 191.78158660199256 L 541.9015195167539 192.50163216024865 M 562.159486433131 191.07605645163835 L 589.8947791439457 182.85406824669974 L 581.9716200357594 180.82776902655064 L 581.4331568023407 191.5022353421045 L 561.3946019705768 190.5102982718474 M 581.4331568023407 191.5022353421045 L 610.7622817871732 191.56947458088 L 611.8232191613984 202.41438465469557 L 581.566842655229 211.16283582403634 L 581.4331568023407 191.5022353421045" fill="black" stroke="black"></path>
<path d="M 441.1215636605719 91.60314116424237 L 471.990567790062 81.57641956460226 L 491.73921857852014 82.0860125529487 L 461.8137436444264 91.30818720761012 L 441.0722100075391 91.93397960097849 M 461.5118776551058 91.94973947397703 L 491.5325101824531 82.37889350514466 L 511.8614574208283 80.93846752496364 L 511.3532002411704 101.19073722290037 L 481.42527369950693 111.1999271949373 L 481.32716073080223 91.07241957778547 L 461.5458237730244 91.28980650651008 M 511.5379704761946 81.57217968252417 L 482.2049941438964 91.72555372347774 M 421.61275751457987 110.80665643203166 L 451.4161755461311 101.75804810419451 L 442.11719790394926 101.03083555532828 L 441.5351653696361 112.02957358488072 L 421.06064784768444 112.25758772488504 M 441.5351653696361 112.02957358488072 L 471.4417503439537 111.23200476728134 L 470.47231748092474 121.76426519475251 L 441.4483738780816 131.24914306416647 L 441.5351653696361 112.02957358488072 M 480.7992196492607 110.3794492433798 L 511.8789043326013 100.96375891759114 L 532.3777292796235 101.25187310196151 L 531.5215195604349 121.82260763110537 L 501.391373252359 132.05882566633355 L 500.9166866571057 111.43421880728991 L 480.9441512749529 111.56481525473478 M 531.661666492613 101.16550321858676 L 500.61188178028186 111.51628209094666 M 442.1961812254042 131.64050279562272 L 472.19205893077776 121.3638347258696 L 471.5089398706342 140.95924662302002 L 442.0793726434526 151.86870662640354 L 442.2522402434329 132.25987974030335 M 501.21468918125044 132.35731878144853 L 530.9175619539952 122.1971569838316 L 532.0132238966091 140.44119206662742 L 501.35357795774456 151.1244922919912 L 501.1645643761276 131.36886329673007 M 441.20240353846555 151.8462855569305 L 471.5002533131506 141.01670163935955 L 470.94517880650443 161.6482079098342 L 441.70999086277493 171.37146330662418 L 441.0622535279114 150.6369002902307 M 500.5905371330006 151.44226385380043 L 531.2821183914649 141.08296325454955 L 531.2652485193315 162.33174611277718 L 501.5201541957239 171.41350224453282 L 501.7488961457763 150.92899655814537 M 441.7215563463604 171.7423879297145 L 472.07702627665196 161.89298257205544 L 471.53005709210686 182.11005284570805 L 441.8706799194476 191.92481631507465 L 441.11018819633654 172.14340938042946 M 500.6495819093639 171.65707294456982 L 530.7653127283647 160.529951131022 L 531.9935223418829 182.29567132892308 L 501.46632126725297 191.26352531082517 L 502.4622714552416 172.87947388641905 M 441.4943113347223 190.9838715212831 L 472.01453450901187 181.41360960052236 L 492.3995233360949 182.38395434558532 L 461.6668459340354 191.21275644598893 L 441.8884058215749 190.85087774729186 M 461.8868886868101 190.9347296998493 L 490.73009434486437 180.52390070734998 L 481.237268804286 182.21210433975907 L 481.2792335863509 191.48869695637754 L 461.8337662050625 191.07843127439824 M 481.2792335863509 191.48869695637754 L 511.48180468727907 191.1440853804258 L 512.754828712915 202.10163456913784 L 482.00208788310476 210.96041743966526 L 481.2792335863509 191.48869695637754" fill="black" stroke="black"></path>
<path d="M 321.02058779153464 11.907583317186642 L 351.13194951695647 0.35182415910365883 L 371.1690933139816 1.3968018429037592 L 371.3653323451725 21.400534644634952 L 340.9694169378425 31.98334486210291 L 340.6491233941235 11.53702691350455 L 321.1908515345798 11.366941603317967 M 370.68612259268247 1.5304990865761194 L 341.03836830986126 12.229567166764099 M 341.35525369902825 30.868836382553226 L 371.16256073585276 22.423002894994745 L 371.9911657992382 41.294098479378505 L 340.9670802187144 51.71787959542171 L 341.99845400728856 31.230521139200377 M 341.0472446812692 51.20357007144904 L 371.8440122866495 40.697013716555965 L 371.8805885162682 62.2034300381012 L 340.93895513645384 71.43313100723483 L 341.2518504951944 51.8831989210368 M 340.9736114273366 71.44271970161392 L 371.91050338760385 61.432413447779226 L 372.17238470322064 80.5222170054005 L 341.45129661704306 91.11124508575483 L 340.98899766834097 72.17682667163191 M 341.2572974260429 91.403877885973 L 370.99852470655884 81.65953575933744 L 391.61386761526285 80.81852318361334 L 361.2988490719302 91.53659702684344 L 341.6059401641736 91.1729284439276 M 361.6108909006804 91.75824434292701 L 390.99418809223914 80.91966572768244 L 411.7729396390008 80.97063755325671 L 411.81189122634044 100.44535153390981 L 381.62188934095997 112.00166765499453 L 381.0117379837877 91.3316541891555 L 360.9310460088953 91.49215269524045 M 410.74745350679797 81.34059882487945 L 380.40374100854314 92.80912996215382 M 341.58689953407503 110.84940595287037 L 370.9569735642507 111.34139096048932 L 371.71692727835926 120.11801392546965 L 342.5935281765094 131.4185797289063 L 341.2759937515337 111.61625463687126 M 382.0337276768931 110.95303718313184 L 410.92835451663194 101.39393624795454 L 431.2014097247599 101.94073356186375 L 432.0271606643296 121.30090641181842 L 402.6194860830041 131.76324087794524 L 401.3428739216816 110.83770277157284 L 381.657938895241 111.28185934301064 M 432.062562324815 101.14016344705172 L 401.58156792868465 111.38689615175123 M 341.13307832226053 132.1212568563521 L 371.5080458363188 120.89262162607469 L 371.31819730332575 141.96422801008205 L 342.1131454545567 150.74580012473362 L 341.2202109208524 131.53611544568676 M 401.4368820904763 131.4758321119033 L 431.0010509789237 121.3339995914726 L 431.7312396083726 141.42822493509777 L 401.5018530912206 151.4571622259 L 401.2151994814422 131.53051020418354 M 341.1031880906557 151.38667069045937 L 371.5271179266937 141.1164997468735 L 371.62929981368933 162.49107832834764 L 341.3112297221584 171.15180040712062 L 342.0588546608733 151.09932351446386 M 402.01781812463815 152.0907835163678 L 430.6765704479374 140.80273005861184 L 431.4245098256446 161.70383202366406 L 400.81008610494274 171.34063449335136 L 401.3860759049799 151.88592050538256 M 342.5968306200738 171.7136343704911 L 371.4280720979733 161.8992536512786 L 370.00761065511654 182.17623115484147 L 341.0057282366841 191.76084702636462 L 341.57517824256956 171.97226508067462 M 401.3974274044956 171.59315610924213 L 430.59725703554204 161.406499070028 L 431.00817921490517 181.6728865245706 L 401.0877956682233 190.5693873394958 L 401.16348899761664 171.06620771554918 M 341.11502522746645 193.07452227364465 L 371.1985872531057 181.64008100014752 L 372.0785586643378 201.30433104333585 L 341.0583652486639 211.82980317968742 L 340.759173468572 191.05167866772467 M 401.5466759367616 191.2655696442018 L 431.5522158911873 182.1663163952988 L 431.430170220881 201.34994824277393 L 401.0776731744399 211.94721935084888 L 402.3330287394144 190.6247502418117" fill="black" stroke="black"></path>
<path d="M 261.8501091957592 131.78946411427705 L 290.94098091012313 122.15175661710728 L 311.7012843331164 121.89337732970972 L 281.2226375922966 130.6251726305441 L 260.592733745841 131.4691315199126 M 280.08431413369726 131.3376069769794 L 311.16513999685685 121.76124508991433 L 332.25429346954843 120.8805407687625 L 332.1887467631312 141.3947682268945 L 300.4688201825173 151.33591078885723 L 301.44799385105983 130.8074510219156 L 282.37749344334526 131.81930870545182 M 331.57226377274924 121.53395017712711 L 300.93784331402804 131.1797554643988" fill="black" stroke="black"></path>
<path d="M 161.58836914756492 92.45697546275986 L 192.33234371197491 82.13457378043042 L 211.71219179459905 81.39713658282892 L 211.20440015348376 102.06137568671251 L 181.22418202615955 111.66820753225953 L 182.0948155617899 91.40908069086268 L 161.5160276919415 92.13257593633558 M 210.9737216855599 80.49380735013186 L 181.4834004949116 90.92082072230625 M 201.41582643201207 91.58881683293946 L 230.43264251830539 82.02319916681701 L 251.04280199278352 81.18128162948011 L 250.2571863715944 101.40494634515602 L 221.15742203497942 112.13939312193145 L 221.83460248261355 92.04569032959223 L 202.00732119482 91.09744190112376 M 251.6754574726884 81.58202622279171 L 222.42851860813502 92.08975161892772 M 141.52216597125965 110.92218630797605 L 172.19527474177775 102.57381995666526 L 161.85943133724706 101.52323586725714 L 161.60528057335625 111.58069928672886 L 141.64050356473754 111.55321167645798 M 161.60528057335625 111.58069928672886 L 191.88473448221717 111.18870065021314 L 190.7314109296526 121.54547224414603 L 159.87272969456936 131.243554405264 L 161.60528057335625 111.58069928672886 M 181.45065830092597 112.7671373550639 L 211.6146906789537 100.45874531579426 L 200.97734977114797 101.78598902758095 L 200.56325347464167 111.03034062506184 L 182.05128247952882 112.07675440573617 M 200.56325347464167 111.03034062506184 L 232.58858925876177 111.36834351575688 L 232.02831380334055 121.4498852265296 L 201.75926059019918 131.1382429236342 L 200.56325347464167 111.03034062506184 M 221.17243936709164 111.85212175973464 L 251.32581357003536 101.13721195213256 L 272.1852443826556 101.20687263400565 L 272.2155258693524 121.48912569069185 L 241.1630369659087 131.25680479396095 L 241.62604683441788 112.01980972617986 L 222.43321339155258 112.30001437338123 M 272.3448656450639 102.50388724519259 L 240.7113462532705 111.6702432162332 M 160.03902164131483 131.02141952313696 L 191.86666623102312 121.12697884729695 L 191.09111700584214 140.78796300270955 L 161.8257362664602 151.53076779526822 L 161.21355668700062 131.3195706802606 M 201.58504314126426 131.83774498354177 L 230.49361266802742 120.79926983497785 L 231.67432766992593 141.90750952718167 L 201.26541523227456 151.95965034556315 L 201.4021962701214 132.0473890334381 M 241.5625851444256 131.9205588309124 L 271.2459887837475 121.07494977969293 L 271.2258933687548 141.3440402985787 L 241.6516384119418 151.8062665488084 L 240.1557810003895 130.83302642281814 M 161.84708191687835 151.31846335589879 L 191.14643213108278 141.6463790602241 L 192.07136741913783 161.88752985954198 L 161.10832551563544 171.16235955310256 L 161.71311108574855 151.00982092456962 M 201.21939484081147 151.29949123837505 L 231.91886419626402 140.95359487413364 L 231.79972921748885 161.15885868011256 L 202.3636350473414 170.77354945427064 L 202.37511375629626 151.21811373483698 M 241.32074651701964 151.60053442978256 L 270.51580499106035 141.61364008744943 L 271.03627135669444 160.49014495121173 L 241.59787942117842 172.5170609150052 L 241.99211409693135 151.72371672049812 M 160.80725206315913 170.99165020175175 L 191.7215187041928 161.55927578772815 L 190.4990861835697 181.32182544695175 L 162.25537454653704 191.20887060126844 L 161.4903625514992 171.01171878533995 M 202.09110843129685 171.24442203418766 L 232.20599187457012 162.14188994302611 L 231.17119267012302 182.5213902167837 L 202.1239311974414 191.96243796252077 L 201.5711349384813 172.4133481280328 M 241.24970274226888 171.60098619449965 L 271.0338720172796 161.89665793375107 L 270.75378231318706 182.30815532236704 L 241.50736189861757 191.84559624648537 L 241.5560222956417 171.8731806381627 M 161.80576054736264 191.21736149549264 L 191.60867047250267 182.3703549765134 L 191.19765465892777 201.2988635525308 L 162.56539995692714 211.76492685632246 L 160.79698979641802 190.32574234785446 M 202.36168539040042 191.82469905369234 L 231.4971586389294 181.87873772127855 L 232.07149421829922 201.28788484788925 L 201.12141318024518 211.397049207826 L 201.0394284014896 191.37025299955963 M 242.17801028897952 191.22929472054832 L 271.6371870042667 181.77318200067643 L 271.90434172373244 200.6729917882904 L 241.4967759840039 211.4932706184753 L 241.76474575946713 190.4658160059715" fill="black" stroke="black"></path>
<path d="M 101.43214950614679 51.289461805857165 L 131.50694722379228 41.004190174768645 L 151.1810204092361 41.439627062968896 L 150.8912625166572 61.41217014916977 L 121.13645666964831 71.17172665146249 L 121.45044321169595 51.20073939534878 L 101.19178637223041 51.37091669356862 M 151.8622872836062 40.119653532752636 L 121.14645819249796 52.17114968462826 M 100.79926113617265 91.13021553741031 L 131.87669491917723 81.18709507475936 L 151.2533618103427 80.70154997237577 L 151.61822129891578 101.09564262995046 L 121.29961382656447 111.3583815971813 L 120.80730966471118 91.02494868075672 L 101.33496729322371 91.24710083461989 M 151.2574799594595 81.17229746365345 L 120.75270297915542 91.79527361591776 M 122.35521758672117 111.64739556464814 L 151.92343424315845 100.671961709163 L 152.06971864640897 121.9964591327626 L 121.89222780541667 131.43785680975867 L 121.16290457626906 112.8053458105326 M 121.01160723597326 131.68298023351275 L 151.13221270383906 121.27640622585312 L 150.67471890679752 141.60255774432346 L 120.93895549596985 151.76496711663282 L 121.2691616337431 131.64926442402108 M 121.21511253482542 151.67336947006362 L 151.56922220357558 141.01754705316142 L 150.28216891772516 161.98985957033034 L 121.93280465924825 172.0347972203643 L 122.14905207169755 151.7704870869808 M 121.4472013984304 171.17027497995414 L 152.13789688504846 162.48436473599625 L 151.95850280007565 181.58641549360686 L 121.36740560853592 191.90050725898774 L 121.66984255298243 171.9724551020915 M 121.74537946405131 191.39389615621468 L 151.54342675904587 181.12627443328512 L 151.6073426753607 201.37195612986713 L 122.08517485141903 211.70826006553744 L 122.07505534160728 190.7022311196254" fill="black" stroke="black"></path>
<path d="M 2.3333454193754406 90.87076583374848 L 31.354285675938584 80.68031656194805 L 51.20603066336639 81.49427931096858 L 51.61091866328716 101.0807963357145 L 20.961832569638855 110.53729973750924 L 21.48992241638687 91.70544426647366 L 1.7544824866212454 91.62481300253764 M 51.53547580947419 81.79089227921648 L 22.08249376842434 91.36343831014179 M 61.48725596549521 91.47786298597902 L 91.29784655606659 82.0953187520928 L 110.87621645715498 81.42546100866052 L 112.83165886943658 101.38878621264773 L 81.00047951653747 110.81297779789674 L 81.59343513422732 91.40911342461445 L 61.14108458340774 90.6456834627386 M 110.97361480759739 81.60716627271455 L 82.08284122098041 91.02885146803781 M 21.89563785336527 110.57440638313884 L 50.930933303521165 101.13842403414829 L 52.43133970546074 121.37470355892515 L 21.33680651359982 131.29219110892285 L 22.289444473264933 112.09210676551099 M 81.29268659346243 111.18073406265722 L 111.30157214545491 101.6784010801211 L 111.36953779365138 121.91751184276774 L 81.10458671682471 131.6538526518903 L 81.08613263660459 111.25827055362178 M 20.89551278767429 131.46715655693987 L 51.48114062309193 121.55533280877722 L 51.43899196172937 141.64074918571455 L 21.199159206162488 151.96467573264943 L 21.604226321945465 131.0814568361471 M 41.2381429224876 132.10340765594248 L 72.07489098769662 122.04601858504151 L 61.084172222623145 122.08093786540036 L 61.3074601801225 132.5266738627569 L 41.662771669358044 130.67620827449394 M 61.3074601801225 132.5266738627569 L 90.79436113179324 130.97057523983392 L 91.28986016226872 141.56818022411062 L 61.12524272791919 150.13140507740246 L 61.3074601801225 132.5266738627569 M 21.681917266639083 151.8916011687243 L 51.80774086616008 141.42779119845844 L 51.50681911986089 161.89707253507814 L 21.811268788125286 170.74733733918112 L 20.965546213520287 152.36912884893934 M 62.00488725063013 151.26464161642772 L 91.22985090710385 141.03889507399163 L 91.5943660115664 162.65260498494985 L 61.84483461217451 172.6211891925838 L 61.34552718751162 151.55835272676984 M 21.463916599147062 172.5780277365083 L 51.301198844877284 160.83605457749044 L 41.453463281672 161.26421957781207 L 41.470990716293905 171.02432240005555 L 21.342948024342473 170.62647643647318 M 41.470990716293905 171.02432240005555 L 71.49273650578277 171.37287996701446 L 70.38404126671716 182.27020320682436 L 41.23586887810735 191.71742178459067 L 41.470990716293905 171.02432240005555 M 21.406557002090892 191.56093974393184 L 52.01208558759467 191.99563712306627 L 51.31964333175067 201.6444251615331 L 21.83333878829484 212.17301617939327 L 21.083164577521835 191.4344456083169" fill="black" stroke="black"></path>
<path d="M 1.7361894816789265 91.32025852813268 L 20.647819841254623 90.7951719554296 L 20.541505358230378 111.20532796864234 L 1.5131377137595141 111.02792465991455 L 1.4206277159205325 92.30378615736927 M 61.628666916990355 92.01682899717736 L 81.30007232918342 91.81927605765847 L 82.15963881576658 111.30128018268232 L 61.03713643329573 111.63677373778913 L 62.23906536396553 91.07788790364374 M 1.1257203330919476 111.96292348736416 L 21.299663045430734 111.55531404495548 L 21.296045953656467 130.88050621481463 L 1.3227887065231736 131.40408235539886 L 1.7570155734613415 111.78060198660684 M 61.52021700731523 111.52070676009386 L 80.30661794317142 111.63909944290633 L 81.29154986781646 131.64416649957667 L 61.48913398461054 131.93619763429257 L 61.04160793082546 110.65593780098283 M 2.039304755795956 130.7792756556656 L 21.899515247247873 132.06987002526006 L 21.47004680715279 151.36411833666892 L 1.3694907943974546 151.74792859934513 L 1.6728947375152572 131.21722049468733 M 41.820505230447175 131.2694605083716 L 62.536019554874954 132.20292250783174 L 61.71108064735888 152.094686451815 L 41.53941943674989 151.30628151462534 L 41.970331168284396 131.59245307882009 M 1.258575441802969 151.15039773742606 L 21.548227858802772 151.3780682840317 L 21.5122803404537 171.27223140971427 L 0.955378059243683 170.9587426763794 L 1.346863338954365 151.5835174134697 M 40.88026380502085 151.46298636610092 L 61.82863924767965 151.62505227388692 L 61.538095863396045 172.05157607502764 L 41.04122406723899 171.9585910719641 L 41.08004704808798 151.9303043779834 M 1.3882161405045506 171.54242140396522 L 21.11343470823985 170.3200377665885 L 21.532937691126534 191.84936444034733 L 1.8287838564303924 191.06390366179372 L 2.3728128969255953 171.93372238766815 M 21.043342207443132 172.45463354111803 L 40.714961945748115 171.07114287082777 L 41.77234741161432 192.6497847799633 L 20.840957842506462 191.5360655718467 L 22.326691127424965 171.7141658118536 M 2.0330857351529796 190.6328720007401 L 20.806938237255622 192.31750919798674 L 20.84210473711935 212.10223730703183 L 0.9613494198067657 211.519009696752 L 1.8560987700000087 191.22249770255166" fill="#E9E9E9" stroke="black" stroke-width="1" class="fg"></path>
<path d="M 102.05325603019 50.49952344556863 L 121.17238693389157 51.70237380271509 L 121.70952643506168 72.51574672937562 L 101.40647409523294 71.62725132107605 L 101.54435392455 51.428440873762085 M 102.386501661351 91.71799686451527 L 121.61760535475607 91.11497243661978 L 121.78004010739626 111.47571783835612 L 102.29516954409993 111.33795737534886 L 100.70267070224791 92.85295299731607 M 100.7874398477368 112.2953300051918 L 120.66079009310201 111.39944504360732 L 120.77743980238931 131.45249078460643 L 101.50473198784618 131.6585420153687 L 101.6196740711683 111.69459113979195 M 101.39922085735732 131.41344578606305 L 121.14803794642928 131.79541191887392 L 121.68105828987528 151.8278834135786 L 101.06583261378863 151.83993654329754 L 101.62829437801823 131.61533780630128 M 102.27655926115533 151.77056782103176 L 122.31938811928997 152.21623527757163 L 121.63909827736595 171.23856181668162 L 101.96986927080269 171.73163775473463 L 102.24077268435391 151.77818144305618 M 100.7349178914198 171.50967721629104 L 121.14087210988956 171.20767897102118 L 121.09799430804303 191.30120279058795 L 102.31114316364136 191.60137811859175 L 101.51051261175382 171.17634080679355 M 101.37651728692802 191.0410251334331 L 121.4109039421115 190.78818150931687 L 121.4378707499913 211.81643894319777 L 101.17436376376732 211.40007890080648 L 101.31513397378524 191.54342380798377" fill="#E9E9E9" stroke="black" stroke-width="1" class="fg"></path>
<path d="M 161.33614079986637 90.97280218851189 L 181.30391414154084 90.99382981959484 L 182.12730405922687 111.66248144479307 L 161.57790628807774 111.0761520157141 L 161.3212442764488 91.93238296509625 M 201.34012599497652 91.08930367586545 L 222.09621443837244 91.96740401962177 L 221.9544511139652 111.05362771157651 L 201.5260986339694 110.99562703550929 L 201.81613598002662 90.77651399388103 M 141.69992583973985 111.87452562343672 L 162.48630380290183 111.54339500529343 L 162.2489645882173 131.80361300510353 L 141.5448196811033 130.81367095694637 L 141.60009855285412 112.28932985919609 M 180.92293928894986 112.4769390513916 L 201.37558175289226 112.16350022023788 L 202.28666643229005 131.36731207511357 L 181.71161063787034 131.55495259079018 L 181.55468269898765 111.73605790724626 M 221.8845257691045 111.905152672825 L 241.5714499884745 112.73940325658509 L 240.37644809384025 131.624952577893 L 221.52542313690185 131.96728517456938 L 222.16246947612834 111.68705095305037 M 140.73630407765117 131.92975345944075 L 161.84483743706102 131.5049465155334 L 161.55914088491645 151.78860206403104 L 141.99503225253687 151.40303353501446 L 141.34768347675552 131.41640349526594 M 181.54690330296495 131.96023793246977 L 201.8045123522321 131.70925834703107 L 200.7465020593084 151.03725375150648 L 181.63326661250494 151.2502599444129 L 181.91572436246224 131.90177124143878 M 221.38251876639467 130.98424317819453 L 240.74334324290172 132.01839352148482 L 242.64141510421496 151.6225518026879 L 221.07864644407553 151.7958172311873 L 221.19819379799074 131.68734804563385 M 141.86548062433712 150.48711636727973 L 162.15544794704675 151.66257445709482 L 161.0878050906474 170.70060822179352 L 141.09744289687833 172.23193144496784 L 141.46714781569943 151.3209671636084 M 180.92943843572246 151.75266593204154 L 202.288489601691 151.538923185456 L 200.9641487721024 171.53141602487125 L 181.75075917113244 170.99695576486164 L 181.3854092343593 151.77430468792892 M 221.31454616631274 150.938916864555 L 242.45444865984177 151.27308661420895 L 241.93628647604115 172.05132529824905 L 221.40983390812363 172.05011987750473 L 220.45280008507243 152.37630591322656 M 141.37262711584833 171.3734147498962 L 161.7091221982349 171.34320490462218 L 160.2827454038248 191.90200878044058 L 141.83752941216767 191.830593786442 L 142.20858075970574 171.74048804101955 M 181.55675839010493 171.2769888494725 L 201.9551353096005 170.98736680964643 L 201.58960946805152 191.33518286893997 L 181.00118275279007 191.32394680847096 L 181.20597712606508 171.9333680530588 M 221.31457383620634 170.9316286438932 L 241.62852523475865 170.64984777402117 L 240.71953706926854 191.52267262140523 L 220.98303354276885 191.61451012482064 L 221.2337261916795 172.37388143906233 M 142.03726484430112 192.1828006453737 L 161.84747094954977 191.82144026886905 L 160.96972903043974 211.52164785813838 L 142.36329204040774 211.60752136730744 L 142.7147026571808 192.02525593898804 M 180.89566257256632 191.9421284554656 L 201.35635427240146 191.89755482263107 L 201.65996297493092 210.69574025000833 L 181.49394309766063 211.69261544876434 L 181.68223909846748 191.24322754275238 M 221.5600701093006 191.3661898966715 L 242.29522883813854 191.5564978694458 L 240.8474269875965 211.4072824756266 L 221.94842209265434 211.48331280038428 L 222.086365191304 191.7833334486803" fill="#E9E9E9" stroke="black" stroke-width="1" class="fg"></path>
<path d="M 261.0415209374738 131.70641883226568 L 282.07904079538105 131.36417417542066 L 281.9396974392447 150.68529353714746 L 260.8570198677284 151.48523992900604 L 261.51121929165276 131.8139614420726 M 281.4556415667684 131.2732709884075 L 301.7045388559364 131.61131217537277 L 301.554533496946 151.78890033116255 L 281.93871061014727 151.9374515386828 L 281.50868173280486 131.63689408225702" fill="#E9E9E9" stroke="black" stroke-width="1" class="fg"></path>
<path d="M 322.6033482807669 11.036742649970206 L 341.5557102688572 11.581529681076036 L 341.4722527819428 31.55018458320224 L 321.40740339774055 31.98579303961683 L 321.25501218011766 11.43221629726378 M 321.7512706505921 31.147620895695045 L 342.34898621809924 31.374502710999693 L 341.98193694537594 51.66174477426165 L 321.6597292167769 51.33893324347203 L 321.6609525697257 31.563897063405467 M 321.50850899946005 51.360271734129434 L 341.76816914245944 51.74334003191483 L 341.7914276910575 71.05190846443656 L 321.5016757588444 71.26513379145257 L 321.6435940228826 51.45751479032682 M 321.79021588946017 71.84197971033313 L 341.9770169648896 71.78611280728722 L 340.9855143614876 91.01693475656299 L 321.3218628277481 91.94390438771323 L 320.2950720402082 71.12055978734602 M 321.1636536520761 92.66068813338158 L 341.9909540636211 91.14091731331214 L 342.2758902109423 111.69288410840117 L 322.0760616402888 111.16313172712242 L 322.0475617699884 90.24586880242046 M 341.3791018179654 91.73818178383911 L 361.36915594681994 90.94544766505857 L 360.8045375992605 111.44959477767746 L 341.455223425689 111.02600978372396 L 341.0708790054634 91.35701157258848 M 361.35427184823027 91.69294097003814 L 381.2404639464773 90.8511618847409 L 380.7057683981484 111.0083370389006 L 361.80743513840366 110.1997204386867 L 361.47013423243055 90.88509652086469 M 322.2916294936309 110.76610918438541 L 341.24717693326477 111.57482140381806 L 340.9947392604148 130.91546277099542 L 321.6543416653273 130.89905155994614 L 321.63261009472325 110.93183207957311 M 380.70571480087074 111.97430330444496 L 401.2996919395603 111.75038202106478 L 401.7895845919923 131.58835682279533 L 381.64389256435106 132.0622683845416 L 381.2759650939328 110.96127574111213 M 321.83857422446647 130.87053259085263 L 342.3138757931687 132.03914638152048 L 342.26784176815517 150.78903240933283 L 322.05341742232844 151.81430013584682 L 321.2076694782473 130.9507758270156 M 381.770964772504 132.4450080222228 L 401.72969823498795 130.8675296111233 L 400.9324202615263 152.0972819736214 L 381.8618700790955 151.37259574162147 L 380.99914067032796 131.15539833490607 M 321.571091110575 151.55998837341662 L 341.26155479653835 151.36779034289304 L 340.32782166159996 171.36629881187733 L 321.4585762076689 171.5413827449946 L 321.7677386249615 151.53912803009283 M 381.5636507340936 150.6079001828001 L 402.2885294261762 152.60856412067562 L 402.26048127239795 172.10086492811521 L 381.4227225402912 171.525789647611 L 381.2452184267418 151.07945001970035 M 320.16303475265437 171.05172699390886 L 341.26944472505056 171.06275745911827 L 342.10866957045545 192.01655387468622 L 321.3093757183196 191.4076754057271 L 321.171769168759 171.07502056299785 M 381.43033443307843 171.08611450402486 L 400.53790693064826 171.62817706399102 L 401.80579089403034 192.12051607606094 L 381.5836126562339 191.93415527080086 L 381.0320695568003 170.72123413780872 M 321.5165758498896 191.08039581659293 L 341.58979270187837 192.28451453684644 L 342.6682489808114 211.65452115466755 L 321.5607875855481 211.19687082758068 L 321.82267789223283 191.29152824336828 M 381.82788881600294 191.92734916276947 L 401.56029756254344 190.99996288810615 L 401.2095361825732 210.8006914733516 L 382.02610914805837 210.76490032347715 L 381.5954122864834 191.80859822405733" fill="#E9E9E9" stroke="black" stroke-width="1" class="fg"></path>
<path d="M 441.1948457181024 90.67136922480478 L 461.4492156067368 91.23696653887872 L 461.35982120189567 111.63655593453028 L 441.97777553845447 111.24852002578963 L 441.4023311100306 92.26511968584528 M 460.96742080291773 91.23084631801552 L 481.4756032659474 90.44584315233026 L 481.8794601819691 111.02420735440563 L 461.96914712871785 111.32319464274048 L 461.6601952733207 92.30691766824803 M 422.29193746002846 110.28007944491782 L 441.4807434046663 112.27257306984455 L 442.1703876457934 131.20509184751324 L 420.7922954463243 131.26312624890352 L 421.5274176394143 111.40061111572946 M 481.4504025043417 110.99732969282515 L 501.83372394635495 110.68213212859696 L 501.77727378313097 130.45888361632848 L 481.653803029866 130.99791846937734 L 481.2853267239708 111.70624122953973 M 421.5300975209774 131.86333326109684 L 441.4344173125718 131.10782939382207 L 441.6703767401875 151.52145693509624 L 421.68880189482985 151.0879487133334 L 420.8754397982749 132.07968992050007 M 482.03959161585857 132.3196553897728 L 501.4155995055911 131.46376270501733 L 500.69426465259227 151.51570516467783 L 481.5684454156808 151.23078002811485 L 481.7125118025472 131.91245903322735 M 420.7978802760157 152.16145581492574 L 441.582124507279 151.17182705954576 L 440.95973274267794 171.11551878206157 L 421.962279431444 172.13635149454151 L 420.56828829734025 151.12917377423872 M 481.26279041990796 150.9978479038928 L 501.06438713509186 151.9594592825581 L 501.91291816340214 172.22336749005123 L 481.3419213109964 171.36319352430394 L 481.4209133693036 151.8704018781181 M 421.6898421024031 171.2018651144391 L 441.18593040045374 172.31172434456303 L 440.65638199056264 190.9981911205209 L 420.9710299100319 191.39217642486648 L 422.5641765222919 171.82465913061648 M 481.36208242372913 171.26224296001615 L 501.18927222172687 170.99402493259493 L 501.70958343661147 191.91849341760027 L 481.22781331329276 190.6624570596485 L 481.0987163084883 172.05862086775946 M 441.78953170576744 191.49214205167988 L 461.9788048807293 190.74362774668012 L 462.33360342774694 210.95032902408607 L 440.7451515493237 211.42090803541277 L 441.21577062720576 192.57861414648403 M 461.3376866579508 190.70358762385584 L 481.2773768710001 191.68959502933305 L 482.22301154016924 211.63177727149562 L 461.43540534085486 211.99591114508272 L 461.0302027829224 190.9221982848287" fill="#E9E9E9" stroke="black" stroke-width="1" class="fg"></path>
<path d="M 541.039354981202 92.27342204177663 L 561.5169030463419 92.87207243907805 L 561.8606918507389 111.31513639731058 L 542.7321401515079 112.35925709175345 L 540.6514212851115 91.12388523387851 M 561.539946753842 91.41071784221474 L 582.1872971937452 91.76294175155171 L 580.5016947040743 111.24982071315105 L 561.2100633260735 112.25513848253358 L 561.0445551433222 91.77980444945607 M 521.9871907268914 111.12667547871399 L 541.5239645665205 111.01210346901112 L 541.6164494163729 130.45935063558 L 521.2614692774191 132.05394763199783 L 521.9387463207042 111.03218464138465 M 581.6676598654996 111.59935082939619 L 600.650704435391 111.15440888280939 L 600.743587206911 132.12262796714666 L 581.1523983929478 130.80551996827035 L 581.9719119911773 111.93221649480668 M 522.1624045143482 131.70511067427634 L 540.5516840375719 130.48059356864158 L 541.4018949283701 151.65616792245447 L 521.0759906662564 151.4112611298674 L 522.0571475330763 131.9748417448662 M 581.1695359221128 131.2630526865155 L 601.8590038677887 130.9400972570977 L 599.9879674005313 150.94488007513945 L 581.768419842368 151.01993907476373 L 581.2958756156554 131.42807101947457 M 520.8049482026653 151.13835035815154 L 540.9042325701315 151.07233972172483 L 540.7877886506272 170.79033071626893 L 522.3679951183469 171.72056886353005 L 520.9946534106506 151.8464019831949 M 581.3774216462887 151.43546459300123 L 601.8127289550494 151.21265352602563 L 601.1835837041119 171.91979639175477 L 581.0217906164386 171.45658656963667 L 580.816680257962 151.863916228183 M 521.1076023620391 171.7787340784607 L 541.0611367276312 172.16525571535848 L 541.9313583970641 191.31121156584223 L 521.0728688482318 192.1023986805163 L 521.1073566545784 171.9176185525474 M 581.5334062625348 172.16734673964305 L 601.2709989962551 171.3595529775278 L 601.1112494029188 191.83826392694527 L 581.6904789891818 190.47924207773474 L 581.4479507649716 171.8543620971343 M 541.7754139824486 191.1260396813931 L 561.2736598690441 191.1634503463144 L 561.9091794035028 211.10711089631968 L 541.5500216211482 211.1325196407187 L 542.0998538520728 190.9850940552277 M 561.2722268365515 191.28817192376252 L 581.2712793921097 191.57734982272612 L 581.9275298691194 211.03869493590594 L 561.0867520189876 211.3380059603053 L 561.7452251543033 190.78985321495378" fill="#E9E9E9" stroke="black" stroke-width="1" class="fg"></path>
<path d="M 621.3778433347467 51.131653351503395 L 641.2434857343543 51.0812443644105 L 640.6221441365025 70.9069804654437 L 621.9475119209927 70.42211706575077 L 622.5025916817048 51.387520076265574 M 620.2775200708909 71.37642776121643 L 642.093870575451 71.12476456469379 L 640.6939448032504 92.60862912607018 L 621.9023288578269 92.14966790895362 L 621.2253546998927 70.78062276397418 M 621.1525237384616 92.04154308801188 L 641.4669695139943 91.4075385278705 L 641.6006730876474 110.91227953706388 L 620.5099803243996 111.54615344278615 L 621.7479996365461 91.28386559851103 M 681.5549992681844 91.4765055483348 L 701.915100203273 91.91977419437532 L 701.2804671447306 111.39019884563884 L 681.4560210829886 111.5579903476687 L 681.0209493556786 91.41774327524206 M 620.5707688200672 111.83903772359449 L 641.685949464457 111.31915421910918 L 640.5134946145779 131.2410571781548 L 621.8569894903093 131.34263679481512 L 622.1868595207168 111.22091469814914 M 660.8923335467789 110.78772168709935 L 680.7472770827733 112.017966769974 L 681.34254013829 131.11342423560706 L 662.1578426531307 131.6730593953421 L 661.20476717901 110.91753545716621 M 621.4079999610816 132.92959534873677 L 641.856271626396 130.86655675446391 L 642.3272384750591 152.3253210176576 L 620.6988175704012 150.99957736150213 L 622.2022822004599 130.0032040005646 M 642.3296406089623 131.32343519781128 L 661.1374890047078 131.24154107375057 L 662.020425116865 150.89769687981067 L 641.4777209553577 151.19741347970313 L 641.3890529349101 131.62901791909758 M 622.1662201345305 151.16356668447597 L 640.9994881434689 151.63254993668264 L 641.0966561544772 172.27190872700206 L 621.2590835187641 171.38519852851678 L 621.2993977015267 151.57121781483482 M 641.510553420204 150.88550358417444 L 662.0954448683256 150.94824863935239 L 661.6011827108591 170.75643891793982 L 641.4134910256652 171.2237917959935 L 641.4773611564361 151.99723584045697 M 621.1860007919356 171.95370132907144 L 642.0813269825788 171.4531672932991 L 640.9412914321184 190.32339133918373 L 622.1550043002609 191.0406478269796 L 622.0611811675077 171.12279441871544 M 661.3198240055067 171.01997805514569 L 680.6637168039982 172.03323214400996 L 682.3711466857569 191.6091224818829 L 660.1744917674387 190.24947225521657 L 661.1866060112769 171.3649145961841 M 620.9611382036227 191.80228944929956 L 642.090174482963 191.30584993707512 L 641.8409685814879 211.10374634812 L 622.2653536307218 211.90182650480492 L 620.9448017949144 191.63034724848265 M 681.1515045841696 191.04170544944526 L 701.8619820100894 190.7923902298337 L 701.9901018389749 211.0400534376943 L 680.5721165915519 211.22784668627312 L 681.6034612847745 191.4887475252847" fill="#E9E9E9" stroke="black" stroke-width="1" class="fg"></path>
<path d="M 741.8419136665271 91.27324440279047 L 761.8323146847084 90.66818268085922 L 761.6354224558241 111.22269283417648 L 742.0209141391166 110.61086916336419 L 741.3663161541791 91.66585718673127 M 761.8538985496191 91.26005709823146 L 780.8689316909418 92.01070691732589 L 781.8873845090633 111.10128721512272 L 761.2261536897641 111.7239689564774 L 761.548782681458 91.10286589987311 M 720.815526697368 111.36006137721898 L 741.1401287281091 111.32683070405514 L 741.1375723941854 130.9105020978338 L 721.5485615470698 131.16616100432668 L 721.3260425301905 111.35394542784668 M 781.4855026169287 112.11188613888991 L 801.037487335213 110.95773143124927 L 801.9111369617559 130.66814368127984 L 781.3191933845327 131.06764223097602 L 780.4945728606953 111.14699074845034 M 741.5304383820882 130.96259534792625 L 761.2860454441834 130.31445543044947 L 761.0277335626872 152.37100595352848 L 741.7041270190628 151.56376490706802 L 740.7386760922416 131.6035806225145 M 761.5966746172345 151.7707871636026 L 781.4094929083288 151.33192742025625 L 780.8406413299248 171.13792887897304 L 761.5545163279032 170.96668381906144 L 762.080206525429 151.3198154116843 M 721.4213012644469 171.59040805456232 L 740.7628253396865 171.08180791377143 L 741.8955078926035 191.5064671322289 L 720.8025227190052 191.32179302883694 L 721.5921410973677 171.6787513473014 M 782.1148822739989 171.6553763178907 L 800.9537772146429 171.57179533036125 L 801.0247453064043 192.36936920769534 L 781.4145796371008 193.02519889542586 L 781.2206883553125 172.60978594955367 M 741.1218425128853 191.06546107069448 L 761.1005298826465 192.2463502036811 L 761.2938367298652 211.32394827596917 L 741.7459409542261 210.78955857270967 L 742.6118035720511 192.08310038522117 M 761.6547033516031 191.34282687626228 L 781.1048312022087 191.23904485798946 L 781.1716774291631 210.51068851981393 L 761.4451293435637 211.43660483231108 L 761.9207902476883 190.6759038782667" fill="#E9E9E9" stroke="black" stroke-width="1" class="fg"></path></svg>